FDS_states
version=1
nRows=4
nColumns=142
inDegrees=yes

# SIMM Motion File Header:
name FDS_states
datacolumns 142
datarows 4
otherdata 1
range 1.51479609749345844882 1.51785946361928858472
endheader
time	/jointset/groundthorax/r_z/value	/jointset/groundthorax/r_z/speed	/jointset/sternoclavicular/sternoclavicular_r2/value	/jointset/sternoclavicular/sternoclavicular_r2/speed	/jointset/sternoclavicular/sternoclavicular_r3/value	/jointset/sternoclavicular/sternoclavicular_r3/speed	/jointset/unrotscap/unrotscap_r3/value	/jointset/unrotscap/unrotscap_r3/speed	/jointset/unrotscap/unrotscap_r2/value	/jointset/unrotscap/unrotscap_r2/speed	/jointset/acromioclavicular/acromioclavicular_r2/value	/jointset/acromioclavicular/acromioclavicular_r2/speed	/jointset/acromioclavicular/acromioclavicular_r3/value	/jointset/acromioclavicular/acromioclavicular_r3/speed	/jointset/acromioclavicular/acromioclavicular_r1/value	/jointset/acromioclavicular/acromioclavicular_r1/speed	/jointset/unrothum/unrothum_r1/value	/jointset/unrothum/unrothum_r1/speed	/jointset/unrothum/unrothum_r3/value	/jointset/unrothum/unrothum_r3/speed	/jointset/unrothum/unrothum_r2/value	/jointset/unrothum/unrothum_r2/speed	/jointset/shoulder0/elv_angle/value	/jointset/shoulder0/elv_angle/speed	/jointset/shoulder1/shoulder_elv/value	/jointset/shoulder1/shoulder_elv/speed	/jointset/shoulder1/shoulder1_r2/value	/jointset/shoulder1/shoulder1_r2/speed	/jointset/shoulder2/shoulder_rot/value	/jointset/shoulder2/shoulder_rot/speed	/jointset/elbow/elbow_flexion/value	/jointset/elbow/elbow_flexion/speed	/jointset/radioulnar/pro_sup/value	/jointset/radioulnar/pro_sup/speed	/jointset/radiocarpal/deviation/value	/jointset/radiocarpal/deviation/speed	/jointset/radiocarpal/flexion/value	/jointset/radiocarpal/flexion/speed	/jointset/wrist_hand/wrist_hand_r1/value	/jointset/wrist_hand/wrist_hand_r1/speed	/jointset/wrist_hand/wrist_hand_r3/value	/jointset/wrist_hand/wrist_hand_r3/speed	/forceset/DELT1/activation	/forceset/DELT1/fiber_length	/forceset/DELT2/activation	/forceset/DELT2/fiber_length	/forceset/DELT3/activation	/forceset/DELT3/fiber_length	/forceset/SUPSP/activation	/forceset/SUPSP/fiber_length	/forceset/INFSP/activation	/forceset/INFSP/fiber_length	/forceset/SUBSC/activation	/forceset/SUBSC/fiber_length	/forceset/TMIN/activation	/forceset/TMIN/fiber_length	/forceset/TMAJ/activation	/forceset/TMAJ/fiber_length	/forceset/PECM1/activation	/forceset/PECM2/activation	/forceset/PECM2/fiber_length	/forceset/PECM3/activation	/forceset/PECM3/fiber_length	/forceset/LAT1/activation	/forceset/LAT1/fiber_length	/forceset/LAT2/activation	/forceset/LAT2/fiber_length	/forceset/LAT3/activation	/forceset/LAT3/fiber_length	/forceset/CORB/activation	/forceset/CORB/fiber_length	/forceset/TRIlong/activation	/forceset/TRIlong/fiber_length	/forceset/TRIlat/activation	/forceset/TRIlat/fiber_length	/forceset/TRImed/activation	/forceset/TRImed/fiber_length	/forceset/ANC/activation	/forceset/ANC/fiber_length	/forceset/SUP/activation	/forceset/SUP/fiber_length	/forceset/BIClong/activation	/forceset/BIClong/fiber_length	/forceset/BICshort/activation	/forceset/BICshort/fiber_length	/forceset/BRA/activation	/forceset/BRA/fiber_length	/forceset/BRD/activation	/forceset/BRD/fiber_length	/forceset/ECRL/activation	/forceset/ECRL/fiber_length	/forceset/ECRB/activation	/forceset/ECRB/fiber_length	/forceset/ECU/activation	/forceset/ECU/fiber_length	/forceset/FCR/activation	/forceset/FCR/fiber_length	/forceset/FCU/activation	/forceset/FCU/fiber_length	/forceset/PL/activation	/forceset/PL/fiber_length	/forceset/PT/activation	/forceset/PT/fiber_length	/forceset/PQ/activation	/forceset/PQ/fiber_length	/forceset/FDSL/activation	/forceset/FDSL/fiber_length	/forceset/FDSR/activation	/forceset/FDSR/fiber_length	/forceset/FDSM/activation	/forceset/FDSM/fiber_length	/forceset/FDSI/activation	/forceset/FDSI/fiber_length	/forceset/FDPL/activation	/forceset/FDPL/fiber_length	/forceset/FDPR/activation	/forceset/FDPR/fiber_length	/forceset/FDPM/activation	/forceset/FDPM/fiber_length	/forceset/FDPI/activation	/forceset/FDPI/fiber_length	/forceset/EDCL/activation	/forceset/EDCL/fiber_length	/forceset/EDCR/activation	/forceset/EDCR/fiber_length	/forceset/EDCM/activation	/forceset/EDCM/fiber_length	/forceset/EDCI/activation	/forceset/EDCI/fiber_length	/forceset/EDM/activation	/forceset/EDM/fiber_length	/forceset/EIP/activation	/forceset/EIP/fiber_length	/forceset/EPL/activation	/forceset/EPL/fiber_length	/forceset/EPB/activation	/forceset/EPB/fiber_length	/forceset/FPL/activation	/forceset/FPL/fiber_length	/forceset/APL/activation	/forceset/APL/fiber_length
      1.51479609749345844882	     10.00000027533643098820	      0.00000000064577758727	    -10.04407376398425810748	     -6.67435148604705474895	      4.25419559197355656721	      2.82694027726515706433	     -4.25419559197335672707	     -2.82694027726467655981	     10.04407376398535767237	      6.67435148604892436452	     -2.03372062503049910731	     -1.35142040917232675312	     16.43581471748298739044	     10.92170437630359813852	      7.38778560067860201599	      4.90923095161776146256	     -7.38778560067906209241	     -4.90923095161790801200	    -16.43581471748309041914	    -10.92170437630332280321	      2.03372062503010786472	      1.35142040917140549006	     63.88069702974456731681	     30.78346514000246969545	     41.50434401649712867766	     27.57990300282562401435	    -63.88069702974489416647	    -30.78346514000290667923	      5.89807052016349420143	     12.01611648845826074705	     52.88058380910845812650	    -74.92504830819584071833	     21.81200930343989341509	     -5.10541840443258099214	      0.00000000137176958110	      0.00000000000230560464	      0.00000000000241347926	      0.00000000000525121449	      0.00000010648054080143	     -0.00000000025227065948	      0.00000000008963073407	      0.00000000023009950625	      0.10523696405896315609	      0.09584497492560709042	      0.32059258700864584624	      0.08514290792546500009	      0.02248652902642920420	      0.13820024744460934762	      0.09089101618554333573	      0.06621427349483835489	      0.15991366568371356838	      0.07614945662575682561	      0.03120237650707314431	      0.08067826195358494823	      0.02207417018838378486	      0.06590435795384354256	      0.03897961407656556215	      0.14520638844810784818	      0.02000363135849573398	      0.02000388203950083377	      0.10068466410115657628	      0.02000397069857103027	      0.08069860633670895844	      0.02049422612931075735	      0.18494738017619835602	      0.02114591741125417673	      0.15472590411913489383	      0.02031538550325733342	      0.21996227614845190179	      0.02000134398248108042	      0.06857097006092101321	      0.02044219681508883946	      0.17429133528811263654	      0.02000094679393807362	      0.09157848959550490830	      0.02000099405413578377	      0.08653587897963053999	      0.04741013568622483298	      0.01410015005712338468	      0.02000000000000000042	      0.03613447021212538163	      0.03291856979675342187	      0.13394145925827879995	      0.02000000000000000042	      0.15129200118382249429	      0.08076071334584217221	      0.08081842698150348836	      0.05687563448406281891	      0.17092207183193580677	      0.06251495257349831691	      0.07812206821223972864	      0.08621068655740432574	      0.05948609567104973933	      0.09044856500068540472	      0.06638996747706073231	      0.02000000000000000042	      0.05804643521569020220	      0.02000000000000000042	      0.04135041452841264897	      0.02000000000000000042	      0.05888598677735699949	      0.08952336447063345692	      0.04749467965224782318	      0.03404830413810826240	      0.02377032866121137414	      0.02000000000000000042	      0.04374817282843514177	      0.02000000000000000042	      0.06544074413499544052	      0.02000000000000000042	      0.07192726203556130959	      0.02000000000000000042	      0.08414293251900062387	      0.02000000000000000042	      0.07374247178276654990	      0.02000000000000000042	      0.07759702925015150854	      0.02000000000000000042	      0.07379779490296507760	      0.02000000000000000042	      0.07332504467967007611	      0.02000000000000000042	      0.07807022755824392923	      0.07553337161927724253	      0.06538467075272019757	      0.05114687786313633355	      0.07766644124999079468	      0.03294749146458935546	      0.07171661518714778083	      0.02466752932761920314	      0.07660845263415695661	      0.02000000000000000042	      0.06547518490312266570	      0.02000000000000000042	      0.06217910476983571494	      0.02000000000000000042	      0.06753198956558556509	      0.02000000000000000042	      0.05937130263644409961	      0.02000000000000000042	      0.07026600938848863442
      1.51565497647164515449	     10.00000027533698698790	      0.00000000064621064536	    -10.04979832583149956804	     -6.65596167660603565963	      4.25662024618745160609	      2.81915122193763201253	     -4.25662024618725176595	     -2.81915122193717326837	     10.04979832583259913292	      6.65596167660792037424	     -2.03487973235802055427	     -1.34769684683803392389	     16.44518221518072564891	     10.89161185530420361545	      7.39199622642459086563	      4.89570457053179097784	     -7.39199622642505005388	     -4.89570457053194818542	    -16.44518221518082867760	    -10.89161185530395492549	      2.03487973235762842350	      1.34769684683706514328	     63.90708110001197184147	     30.65495402159348259374	     41.52799917772299664875	     27.50391222504239863156	    -63.90708110001230579655	    -30.65495402159389826124	      5.90837446199946292325	     11.97796764036181471624	     52.81628457487869354736	    -74.80359684912323814387	     21.80764261779741630676	     -5.06486289539748035793	      0.00000000137177156491	      0.00000000000231477598	      0.00000000000241798977	      0.00000000000524896462	      0.00000010648032382137	     -0.00000000025214274253	      0.00000000008982931702	      0.00000000023176321329	      0.10514647682219402380	      0.09582268618470189681	      0.32000717171785081350	      0.08513960877642109959	      0.02248098516160866242	      0.13821353315304196752	      0.09080334081649681088	      0.06621754894033728134	      0.15993918028227113726	      0.07615064647851532698	      0.03116844854596941342	      0.08067969793793473843	      0.02207332600772263925	      0.06590657477382601270	      0.03875344874325795802	      0.14521870887585036636	      0.02000359026694171344	      0.02000383811127178640	      0.10068064378919676372	      0.02000392576708603584	      0.08070068101593788623	      0.02048862591170673084	      0.18495806364547789924	      0.02113290904917843396	      0.15474170275466078706	      0.02031181356579522465	      0.21998067273037180680	      0.02000132877440528173	      0.06856761187331680829	      0.02043718688497804525	      0.17427720868288670841	      0.02000093608033266801	      0.09155407956010934434	      0.02000098280574820822	      0.08651153122259065686	      0.04780835949599266527	      0.01408617938458528451	      0.02000000000000000042	      0.03613391117386108992	      0.03291536659969188788	      0.13397005711425127861	      0.02000000000000000042	      0.15132462757978210055	      0.08075731777310760084	      0.08083504508808937727	      0.05693398272908119923	      0.17098050494924857401	      0.06251088533226394073	      0.07814259883319828182	      0.08619827733868044850	      0.05948777090196301354	      0.09039875984175906043	      0.06638357823302995508	      0.02000000000000000042	      0.05806001495094470499	      0.02000000000000000042	      0.04136073541577529877	      0.02000000000000000042	      0.05890028780779518747	      0.08956001205606350934	      0.04750736306407243176	      0.03408500420885364479	      0.02377089034595852163	      0.02000000000000000042	      0.04376105090415614157	      0.02000000000000000042	      0.06545234223218152070	      0.02000000000000000042	      0.07192743202858277451	      0.02000000000000000042	      0.08414313060726245908	      0.02000000000000000042	      0.07374258041869016789	      0.02000000000000000042	      0.07759714462179138905	      0.02000000000000000042	      0.07379794617933539691	      0.02000000000000000042	      0.07332522365857098434	      0.02000000000000000042	      0.07806697631914515101	      0.07551623684150919613	      0.06537971258581984357	      0.05114318337226633066	      0.07766236433293215169	      0.03295084708846638538	      0.07171303335838925819	      0.02466958121185362784	      0.07660342380249142435	      0.02000000000000000042	      0.06547516557477171817	      0.02000000000000000042	      0.06217897317121775375	      0.02000000000000000042	      0.06753198956558556509	      0.02000000000000000042	      0.05937130263644407879	      0.02000000000000000042	      0.07026600938848864830
      1.51688710447706265327	     10.00000027533778279576	      0.00000000064680738953	    -10.05798308448568967322	     -6.62961184417487725540	      4.26008692365380881029	      2.80799067656416800887	     -4.26008692365360808196	     -2.80799067656362488776	     10.05798308448679456717	      6.62961184417676463454	     -2.03653697949469725259	     -1.34236154176749167277	     16.45857550359224319436	     10.84849379645152467333	      7.39801641739006132781	      4.87632329982536383284	     -7.39801641739052140423	     -4.87632329982553525127	    -16.45857550359234977577	    -10.84849379645126354887	      2.03653697949430378955	      1.34236154176656907744	     63.94473852783784195708	     30.47096517108858648726	     41.56182041867143084346	     27.39502886399802861206	    -63.94473852783817591217	    -30.47096517108902702375	      5.92309952749536261507	     11.92377197984252568119	     52.72422246148826019407	    -74.63303629935202820889	     21.80143006525991822286	     -5.02091440566735247586	      0.00000000137177440456	      0.00000000000230083251	      0.00000000000242442538	      0.00000000000520304280	      0.00000010648001484434	     -0.00000000025031503246	      0.00000000009011466270	      0.00000000023175109098	      0.10501890898886355463	      0.09579096995173978779	      0.31918944754025796451	      0.08513533309618902256	      0.02247314233967861660	      0.13823251052603696687	      0.09067966772774112283	      0.06622226111627048384	      0.15997097674035229420	      0.07615237477741686190	      0.03112047198330031988	      0.08068174934476199378	      0.02207213171999425697	      0.06590974180162981200	      0.03843392794864477352	      0.14523420963028413344	      0.02000353212861449154	      0.02000377595948011483	      0.10067492159294832987	      0.02000386219583956404	      0.08070366998904621170	      0.02048070275234414525	      0.18497333412898078753	      0.02111450581220140205	      0.15476428350716336935	      0.02030675993696044040	      0.22000697442857336528	      0.02000130725727689365	      0.06856282594009720233	      0.02043009883283692166	      0.17425694459951796000	      0.02000092092220003351	      0.09151911734920088748	      0.02000096689097967395	      0.08647665816199495703	      0.04828410187591031938	      0.01406620476878062478	      0.02000000000000000042	      0.03613311821217536635	      0.03291083689967619352	      0.13401107693816405320	      0.02000000000000000042	      0.15137131433511688550	      0.08075252501794195903	      0.08085881304497828659	      0.05700405225370144130	      0.17106421544919780953	      0.06250514044591248819	      0.07817183673753758111	      0.08618076625913834166	      0.05949018515156453274	      0.09032849704961865012	      0.06637451519017761870	      0.02000000000000000042	      0.05807944292449759155	      0.02000000000000000042	      0.04137549922557218207	      0.02000000000000000042	      0.05892074029492300191	      0.08960462892094338272	      0.04752558622321208931	      0.03412859763661919149	      0.02377169178946101843	      0.02000000000000000042	      0.04377946618294677184	      0.02000000000000000042	      0.06546893588189167668	      0.02000000000000000042	      0.07192767259921765965	      0.02000000000000000042	      0.08414341079736673001	      0.02000000000000000042	      0.07374273413447714198	      0.02000000000000000042	      0.07759730785641215378	      0.02000000000000000042	      0.07379816019186757892	      0.02000000000000000042	      0.07332547695313181013	      0.02000000000000000042	      0.07806231016231536535	      0.07549204760192980423	      0.06537265066372353883	      0.05113796265905298788	      0.07765650765099098296	      0.03295483107213938168	      0.07170789088879570006	      0.02467200675419453995	      0.07659622364974348618	      0.02000000000000000042	      0.06547513823995874949	      0.02000000000000000042	      0.06217878704817133423	      0.02000000000000000042	      0.06753198956558562061	      0.02000000000000000042	      0.05937130263644406492	      0.02000000000000000042	      0.07026600938848867606
      1.51785946361928858472	     10.00000027533841162608	      0.00000000064630108490	    -10.06441933080436790249	     -6.60879269749838016423	      4.26281301382012767220	      2.79917266864216829347	     -4.26281301381992605570	     -2.79917266864168112761	     10.06441933080547279644	      6.60879269750022224628	     -2.03784018845090875161	     -1.33814608805959744942	     16.46910757996440111128	     10.81442598239609687027	      7.40275051323531929626	      4.86101005186943968539	     -7.40275051323577848450	     -4.86101005186960044568	    -16.46910757996450413998	    -10.81442598239583929853	      2.03784018845051440039	      1.33814608805871770869	     63.97429678414909659523	     30.32607066881440260886	     41.58841641822921531002	     27.30899952509681227752	    -63.97429678414942344489	    -30.32607066881485380350	      5.93467344976326582895	     11.88244830707666821468	     52.65171637933999448933	    -74.50188619868450246031	     21.79655644036122907892	     -5.00787178373564856315	      0.00000000137177663939	      0.00000000000229674467	      0.00000000000242948486	      0.00000000000520752445	      0.00000010647977169400	     -0.00000000024964906718	      0.00000000009033971575	      0.00000000023086704087	      0.10492007006885022136	      0.09576612561441158467	      0.31856200204577955759	      0.08513227829305930472	      0.02246704352108465710	      0.13824741867553561048	      0.09058378964755919860	      0.06622597950850660220	      0.15999258621099674005	      0.07615374945674704965	      0.03108318091514947895	      0.08068336091272006183	      0.02207120297442749859	      0.06591223047131307411	      0.03818580760150534770	      0.14524904239459526800	      0.02000348691297202525	      0.02000372762246616087	      0.10067044323748640389	      0.02000381275488021318	      0.08070603919978060203	      0.02047454095509967237	      0.18498533858098734073	      0.02110019446771304805	      0.15478203664091361169	      0.02030282970113315294	      0.22002765639322277580	      0.02000129052286071796	      0.06855907535718798462	      0.02042458647076221198	      0.17424095317466475885	      0.02000090913333566964	      0.09149157155925422003	      0.02000095451366042110	      0.08644918256197089979	      0.04859323487385788787	      0.01405051617058299639	      0.02000000000000000042	      0.03613249841974456450	      0.03290731595611827431	      0.13404341932261548687	      0.02000000000000000042	      0.15140805895484824029	      0.08074880696288447290	      0.08087750698134622829	      0.05704982163281129698	      0.17113018105791069634	      0.06250068040692079163	      0.07819474770682696696	      0.08616718517821658763	      0.05949209919691712811	      0.09027401864224493533	      0.06636744214281120602	      0.02000000000000000042	      0.05809473122579455334	      0.02000000000000000042	      0.04138711568359437765	      0.02000000000000000042	      0.05893682863302632940	      0.08963420348695830264	      0.04753998763032248054	      0.03415674003733931707	      0.02377232291030503472	      0.02000000000000000042	      0.04379395011475709781	      0.02000000000000000042	      0.06548199448086074181	      0.02000000000000000042	      0.07192785990082659064	      0.02000000000000000042	      0.08414362888136772689	      0.02000000000000000042	      0.07374285380123533906	      0.02000000000000000042	      0.07759743492807007204	      0.02000000000000000042	      0.07379832678019448977	      0.02000000000000000042	      0.07332567416122182102	      0.02000000000000000042	      0.07805862598741625247	      0.07547327913045703829	      0.06536711747120274585	      0.05113390765218206457	      0.07765187948573894217	      0.03295740156589050535	      0.07170383092803177261	      0.02467356443217494019	      0.07659055339205453339	      0.02000000000000000042	      0.06547511696476707166	      0.02000000000000000042	      0.06217864219215092636	      0.02000000000000000042	      0.06753198956558562061	      0.02000000000000000042	      0.05937130263644405104	      0.02000000000000000042	      0.07026600938848867606
